<?xml version="1.0" encoding="UTF-8" standalone="no"?>
<svg
   xmlns:dc="http://purl.org/dc/elements/1.1/"
   xmlns:cc="http://creativecommons.org/ns#"
   xmlns:rdf="http://www.w3.org/1999/02/22-rdf-syntax-ns#"
   xmlns:svg="http://www.w3.org/2000/svg"
   xmlns="http://www.w3.org/2000/svg"
   xmlns:sodipodi="http://sodipodi.sourceforge.net/DTD/sodipodi-0.dtd"
   xmlns:inkscape="http://www.inkscape.org/namespaces/inkscape"
   inkscape:version="1.0 (4035a4fb49, 2020-05-01)"
   sodipodi:docname="Miiverse 2D Icon.svg"
   viewBox="0 0 121.78286 108.61714"
   height="108.61714"
   width="121.78286"
   id="svg10"
   version="1.1">
  <metadata
     id="metadata16">
    <rdf:RDF>
      <cc:Work
         rdf:about="">
        <dc:format>image/svg+xml</dc:format>
        <dc:type
           rdf:resource="http://purl.org/dc/dcmitype/StillImage" />
        <dc:title></dc:title>
      </cc:Work>
    </rdf:RDF>
  </metadata>
  <defs
     id="defs14" />
  <sodipodi:namedview
     inkscape:current-layer="g18"
     inkscape:window-maximized="0"
     inkscape:window-y="48"
     inkscape:window-x="128"
     inkscape:cy="113.02487"
     inkscape:cx="9.7005614"
     inkscape:zoom="1.8850616"
     inkscape:snap-page="true"
     inkscape:snap-text-baseline="true"
     inkscape:snap-center="true"
     inkscape:snap-object-midpoints="true"
     inkscape:snap-midpoints="true"
     inkscape:snap-smooth-nodes="true"
     inkscape:snap-intersection-paths="true"
     inkscape:object-paths="true"
     inkscape:snap-bbox-midpoints="true"
     inkscape:snap-bbox-edge-midpoints="true"
     inkscape:bbox-nodes="true"
     inkscape:bbox-paths="true"
     inkscape:snap-bbox="true"
     showgrid="false"
     id="namedview12"
     inkscape:window-height="935"
     inkscape:window-width="1439"
     inkscape:pageshadow="2"
     inkscape:pageopacity="0"
     guidetolerance="10"
     gridtolerance="10"
     objecttolerance="10"
     borderopacity="1"
     bordercolor="#666666"
     pagecolor="#ffffff" />
  <g
     id="g18"
     inkscape:label="Image"
     inkscape:groupmode="layer">
    <g
       inkscape:label="Layer 1"
       id="layer1"
       transform="matrix(1.1768088,0,0,1.1729402,-1.7890124e-4,-1125.741)">
      <path
         style="opacity:1;fill:#ffffff;fill-opacity:1;stroke:#000000;stroke-width:0.184575;stroke-miterlimit:4;stroke-dasharray:none;stroke-opacity:0"
         d="m 43.095546,1045.106 c -1.209509,-0.8437 -0.636421,-2.5557 1.405155,-4.1976 0.639828,-0.5146 0.702546,-0.7503 0.528498,-1.9864 -0.108617,-0.7713 -0.321246,-2.5665 -0.472509,-3.9894 -0.151263,-1.4228 -0.41582,-3.4167 -0.587904,-4.431 -1.18377,-6.977 -1.507384,-14.1978 -0.796795,-17.7788 0.281862,-1.4205 0.435852,-2.7823 0.342202,-3.0264 -0.254237,-0.6625 -0.960885,-0.5359 -1.360539,0.2439 -0.193832,0.3781 -0.481856,0.8938 -0.640054,1.1459 -0.158199,0.2521 -0.686514,1.2835 -1.174034,2.2919 -0.487521,1.0085 -1.383848,2.7608 -1.99184,3.894 -1.083849,2.0203 -1.09629,2.0824 -0.636971,3.1817 1.389912,3.3265 -2.464948,6.7316 -5.818984,5.14 -1.58915,-0.7541 -2.318495,-1.9227 -2.318495,-3.7148 0,-1.7424 0.495593,-2.574 2.160543,-3.625 0.973014,-0.6142 1.448152,-1.2978 2.593263,-3.7307 2.109103,-4.4811 2.353799,-4.9722 3.306651,-6.6374 0.483526,-0.845 1.103681,-1.9488 1.378122,-2.4531 0.274441,-0.5042 1.564362,-2.5187 2.866492,-4.4767 1.304247,-1.96119 2.293069,-3.75399 2.20176,-3.99194 -0.09116,-0.23756 -0.829025,-1.00722 -1.639698,-1.71035 -1.43579,-1.24532 -4.005081,-4.64018 -4.005081,-5.292 0,-0.17888 -0.195284,-0.69025 -0.433964,-1.13636 -0.629244,-1.17612 -1.40129,-4.83952 -1.400363,-6.64481 0.0017,-3.37851 1.950289,-8.54727 4.097038,-10.86785 1.984994,-2.14573 4.384796,-3.66297 6.752136,-4.26893 3.913646,-1.00177 4.286436,-1.00235 8.556464,-0.0133 2.129254,0.49317 5.024971,2.28904 6.364427,3.9471 0.307043,0.38008 0.751688,0.88448 0.988107,1.1209 1.04438,1.04438 2.553114,4.731 3.014604,7.36625 0.438629,2.5047 0.437706,2.99597 -0.0106,5.64647 -0.692691,4.09532 -2.086793,6.82691 -4.93234,9.6644 -1.218532,1.21507 -2.215513,2.35149 -2.215513,2.52536 0,0.17387 0.797105,1.45585 1.771347,2.84886 2.413448,3.4508 4.479049,7.0292 6.577647,11.3948 2.605988,5.4211 2.79515,5.7237 4.206866,6.7303 2.662157,1.8981 3.055525,4.395 1.00598,6.3855 -1.877835,1.8237 -4.572229,1.7591 -6.404709,-0.1536 -0.918442,-0.9586 -0.954278,-1.2 -0.722242,-4.8641 0.07358,-1.1619 -0.115127,-1.6602 -1.67788,-4.431 -0.568757,-1.0085 -1.467422,-2.6864 -1.997033,-3.7287 -0.548662,-1.0798 -1.227929,-1.9792 -1.578894,-2.0906 -0.831047,-0.2638 -0.901264,-0.1311 -0.581326,1.0982 0.282608,1.0858 0.914646,5.3532 0.993433,6.7074 0.04882,0.8391 -0.511157,6.4774 -1.001546,10.0844 -0.171377,1.2605 -0.447757,3.667 -0.614175,5.3478 -0.166417,1.6807 -0.435699,3.4545 -0.598405,3.9418 -0.162705,0.4873 -0.294793,1.5187 -0.293529,2.2919 0.002,1.2608 0.144007,1.5451 1.375146,2.7543 1.61517,1.5863 1.815911,2.7221 0.619628,3.5059 -1.136729,0.7448 -5.689758,0.6982 -6.380736,-0.065 -0.626307,-0.692 -0.654929,-2.183 -0.05708,-2.9734 0.360126,-0.4761 0.450581,-1.8409 0.458382,-6.9161 0.0062,-4.0319 -0.104692,-6.3936 -0.306046,-6.5181 -0.432854,-0.2675 -4.106572,-0.2823 -4.533799,-0.018 -0.239379,0.1479 -0.345439,2.2137 -0.345439,6.7282 0,5.418 0.07716,6.5787 0.458382,6.8951 0.63912,0.5304 0.578949,2.2409 -0.100459,2.8557 -0.770272,0.6971 -5.391612,0.6928 -6.393286,-0.01 v 0 z m 10.960718,-52.05437 c 2.660854,-0.73911 4.298828,-2.66132 3.63449,-4.26517 -0.511173,-1.23408 -1.623238,-1.35936 -3.647445,-0.41089 -1.324801,0.62075 -1.934058,0.73888 -3.033546,0.58817 -0.756692,-0.10371 -1.63287,-0.42121 -1.947062,-0.70555 -0.834875,-0.75555 -2.55288,-0.61923 -3.286084,0.26076 -0.79091,0.94923 -0.767378,1.2577 0.182018,2.38599 1.765497,2.09818 5.09483,2.98079 8.097629,2.14669 z m -6.485613,-11.88284 c 0.786295,-0.73451 0.949082,-1.11947 0.949082,-2.24438 0,-1.96979 -1.006569,-3.06359 -2.856139,-3.10367 -1.130193,-0.0245 -1.549534,0.13085 -2.303808,0.85338 -1.201278,1.15073 -1.478896,2.40018 -0.772757,3.47789 1.397935,2.13352 3.359686,2.53376 4.983622,1.01678 z m 12.174571,-9.5e-4 c 1.187808,-1.0849 1.475079,-2.09805 1.001635,-3.5326 -0.655685,-1.98674 -3.182801,-2.62542 -4.847099,-1.225 -1.70769,1.43692 -1.533718,3.80061 0.369477,5.01993 1.333656,0.85443 2.33612,0.77878 3.475987,-0.26233 z"
         id="path4155"
         inkscape:connector-curvature="0" />
      <path
         style="opacity:1;fill:#ffffff;fill-opacity:1;stroke:#000000;stroke-width:0.184575;stroke-miterlimit:4;stroke-dasharray:none;stroke-opacity:0"
         d="m 83.724379,1041.2716 c -1.304937,-0.3402 -1.49272,-0.9098 -0.871463,-2.6433 0.358504,-1.0003 0.506431,-2.4186 0.505362,-4.8451 -0.0014,-3.2249 -0.04278,-3.4569 -0.689084,-3.8644 -0.755207,-0.4761 -3.765647,-0.4446 -4.254877,0.045 -0.450078,0.4501 -0.151358,8.2986 0.360118,9.4617 0.322584,0.7336 0.345944,1.0779 0.09047,1.3333 -0.453584,0.4536 -2.827282,0.7091 -4.198309,0.4519 -0.936373,-0.1757 -1.088649,-0.3226 -1.088649,-1.05 0,-0.5408 0.330542,-1.1624 0.916764,-1.7241 0.98091,-0.9397 1.154776,-1.9317 0.596138,-3.401 -0.176344,-0.4638 -0.451759,-1.8776 -0.612033,-3.1417 l -0.291406,-2.2984 1.482446,-1.5384 c 2.408853,-2.4998 2.7975,-3.3646 2.7975,-6.2253 0,-1.9305 -0.143153,-2.7502 -0.650208,-3.723 -0.908559,-1.7432 -2.559529,-3.3641 -4.624128,-4.5401 l -1.760074,-1.0025 0.789208,-1.2746 c 0.434064,-0.7011 0.993692,-1.6872 1.243618,-2.1914 0.249925,-0.5042 0.650409,-1.2606 0.889964,-1.6807 0.695583,-1.2201 0.525358,-1.9094 -0.773291,-3.1313 -2.715452,-2.555 -3.951699,-5.4428 -3.967166,-9.26701 -0.02769,-6.84659 4.674008,-11.74353 11.274821,-11.74302 4.733238,3.6e-4 8.83589,2.89649 10.541005,7.44108 0.617483,1.64576 0.759233,7.03864 0.211493,8.04622 -0.166211,0.30575 -0.620237,1.23071 -1.008947,2.05543 -0.388709,0.8248 -1.428696,2.2164 -2.311082,3.0925 -0.882385,0.8762 -1.604337,1.8107 -1.604337,2.0768 0,0.6329 0.645623,2.0404 0.935922,2.0404 0.124653,0 0.379419,0.3782 0.566147,0.8404 0.186728,0.4622 0.818638,1.6655 1.404246,2.6739 0.585607,1.0084 1.90693,3.5458 2.936274,5.6387 1.029343,2.0928 2.213328,4.074 2.631077,4.4026 1.48993,1.1719 1.916327,1.8285 1.916327,2.9505 0,1.375 -0.977752,2.3895 -2.548631,2.6444 -2.392493,0.3883 -4.28556,-1.6054 -3.524056,-3.7113 0.330284,-0.9133 0.267009,-1.1922 -0.704105,-3.1028 -1.601871,-3.1515 -2.19853,-4.0814 -2.62004,-4.0836 -0.458674,0 -0.50956,2.5937 -0.0866,4.4179 0.325815,1.4052 -0.34892,8.9846 -1.066428,11.9793 -0.248222,1.0361 -0.447492,2.6175 -0.442823,3.5143 0.0073,1.3988 0.137562,1.7572 0.916764,2.5219 0.901469,0.8846 1.170478,1.8136 0.623106,2.1519 -0.658378,0.4069 -2.996998,0.6468 -3.931039,0.4032 z"
         id="path4157"
         inkscape:connector-curvature="0" />
      <path
         style="opacity:1;fill:#ffffff;fill-opacity:1;stroke:#000000;stroke-width:0.184575;stroke-miterlimit:4;stroke-dasharray:none;stroke-opacity:0"
         d="m 17.347067,1041.2118 c -1.734054,-0.4179 -1.911401,-1.1633 -0.620732,-2.609 1.084362,-1.2145 1.150513,-2.0079 0.488261,-5.8562 -0.608638,-3.5367 -1.094018,-11.0704 -0.878709,-13.6386 0.213318,-2.5445 -0.190053,-3.0771 -1.302429,-1.7198 -0.396357,0.4836 -0.813756,1.1544 -0.927554,1.4905 -0.113797,0.3362 -0.541505,1.1414 -0.950462,1.7895 -0.627539,0.9944 -0.712145,1.4066 -0.542233,2.642 0.144223,1.0487 0.06763,1.7224 -0.270054,2.3754 -0.558864,1.0807 -1.015044,1.2912 -2.7985213,1.2912 -1.7310412,0 -2.8904594,-1.1183 -2.8904594,-2.788 0,-0.9235 0.2216823,-1.3125 1.298749,-2.2792 1.5869494,-1.4242 1.9036354,-1.9217 5.2366777,-8.225 0.355241,-0.6719 0.740425,-1.2935 0.855965,-1.3814 0.11554,-0.088 0.362096,-0.5009 0.547901,-0.9176 0.335732,-0.7531 0.479612,-1.0005 1.773218,-3.0497 0.923069,-1.4622 0.862325,-1.8346 -0.519349,-3.1837 -3.777477,-3.6886 -4.968838,-11.19307 -2.620079,-16.50403 0.714479,-1.61557 3.083762,-4.45369 3.717964,-4.45369 0.181335,0 0.49328,-0.19711 0.693213,-0.43801 1.261779,-1.52035 8.856444,-1.52035 10.118223,0 0.199933,0.2409 0.518569,0.43784 0.708082,0.43763 0.431144,-4.6e-4 3.552564,3.32345 3.555124,3.78575 10e-4,0.18704 0.214983,0.74875 0.475439,1.24824 1.326463,2.54386 1.2323,8.79942 -0.177226,11.77371 -1.069858,2.2576 -1.399022,2.7542 -2.712491,4.0925 -1.311325,1.3362 -1.570876,2.2932 -0.796279,2.936 0.25211,0.2093 0.458382,0.5156 0.458382,0.6807 0,0.1651 0.416398,0.9172 0.92533,1.6713 1.301851,1.929 1.300156,2.5656 -0.0086,3.217 -1.77766,0.8848 -3.775764,2.8041 -4.571635,4.3913 -0.584268,1.1652 -0.751785,1.9759 -0.751785,3.6384 0,2.6205 0.838607,4.4989 2.900146,6.4959 l 1.396576,1.3529 -0.245556,1.5762 c -0.135056,0.8669 -0.379361,2.195 -0.542901,2.9513 -0.542886,2.5107 -0.412402,3.5766 0.551482,4.5048 0.481495,0.4636 0.972028,1.1523 1.090076,1.5303 0.175554,0.5622 0.06234,0.7453 -0.62183,1.0054 -1.107234,0.421 -3.125215,0.4333 -4.170379,0.025 -0.935883,-0.3652 -1.049003,-1.0097 -0.381985,-2.1766 0.320663,-0.5609 0.439602,-1.9193 0.447553,-5.1115 0.01041,-4.1795 -0.01576,-4.3647 -0.676744,-4.7905 -0.769169,-0.4954 -3.109865,-0.4798 -3.613784,0.024 -0.177845,0.1778 -0.401148,2.095 -0.496228,4.2603 -0.138767,3.1602 -0.07571,4.2216 0.319608,5.3802 0.270864,0.7938 0.417426,1.6389 0.325693,1.8779 -0.269055,0.7012 -2.237783,1.0521 -3.795693,0.6766 z"
         id="path4159"
         inkscape:connector-curvature="0" />
      <path
         style="opacity:1;fill:#00c900;fill-opacity:1;stroke:#000000;stroke-width:0.184575;stroke-miterlimit:4;stroke-dasharray:none;stroke-opacity:0"
         d="m 43.040074,1052.0266 c -2.187519,-0.3404 -5.031296,-1.1369 -5.613322,-1.5722 -0.27414,-0.205 -0.97974,-0.8159 -1.567997,-1.3576 l -1.069558,-0.9849 -7.945288,-0.134 c -7.815901,-0.1318 -10.708866,-0.4374 -12.477477,-1.3182 -0.475822,-0.237 -1.05727,-0.4309 -1.292106,-0.4309 -0.234835,0 -1.156365,-0.7294 -2.047843,-1.6208 -1.2788703,-1.2789 -1.7415024,-2.0193 -2.1926019,-3.5092 -0.550496,-1.8182 -0.5518791,-1.9726 -0.037238,-4.158 0.6808636,-2.8912 0.5158766,-3.4346 -1.1270618,-3.7121 -1.7164366,-0.29 -3.2667708,-1.1391 -4.7692951,-2.6119 -3.9343411,-3.8566 -3.71840635,-9.0865 0.5474285,-13.2584 0.8549971,-0.8362 1.8800172,-2.1426 2.2778226,-2.9031 0.3978053,-0.7605 1.0028967,-1.8641 1.3446474,-2.4523 1.843071,-3.1725 2.223892,-4.096 2.0380451,-4.9421 -0.10438,-0.4753 -0.2839054,-0.8641 -0.3989458,-0.8641 -0.2122688,0 -1.1185842,-1.9021 -1.9657157,-4.1254 -0.2561534,-0.6723 -0.7107394,-2.55245 -1.0101909,-4.1781 -0.5225885,-2.83701 -0.5224873,-3.08249 0.00251,-6.11176 0.5347803,-3.08559 0.836976,-4.03045 2.0845033,-6.5175 0.8719694,-1.73835 2.8808043,-4.30125 4.1707163,-5.32107 2.898715,-2.29175 7.456804,-3.98498 10.727367,-3.98498 1.766618,0 5.907359,0.96349 6.595638,1.53471 0.735312,0.61026 1.620267,0.0317 1.811614,-1.18434 0.177416,-1.12749 0.360561,-1.61661 1.681318,-4.4902 0.789881,-1.71855 3.32708,-5.10468 4.674308,-6.2383 0.489188,-0.41162 1.04989,-0.89533 1.246005,-1.0749 1.484149,-1.35897 4.984397,-3.10261 7.521395,-3.74676 0.924403,-0.23471 2.162035,-0.55487 2.750292,-0.71147 3.836674,-0.63768 8.170167,0.3682 11.678376,1.96481 2.459513,1.16354 5.576404,3.63826 7.211761,5.72593 2.085951,2.734 3.472161,5.54206 4.508031,9.00153 0.114837,0.76578 0.363433,1.45116 0.552436,1.52307 0.189003,0.0719 1.428502,-0.21406 2.754442,-0.63548 7.979826,-2.53623 16.798116,1.26066 20.684688,8.90621 0.659318,1.29699 1.200833,2.57346 1.203363,2.83661 0.0024,0.26314 0.202767,1.0285 0.444967,1.7008 1.228653,3.41043 -0.06184,10.31039 -2.639379,14.11209 -1.052928,1.553 -1.061512,1.7831 -0.130144,3.4875 0.404757,0.7408 1.454223,2.7537 2.332144,4.4731 0.87792,1.7195 2.196946,3.7622 2.931161,4.5395 2.12759,2.2524 2.86281,4.0116 2.86281,6.8497 0,1.9424 -0.14369,2.6806 -0.76119,3.91 -0.74357,1.4804 -2.752575,3.7297 -3.331265,3.7297 -0.159739,0 -0.507535,0.1789 -0.77288,0.3976 -0.265345,0.2186 -1.170017,0.5698 -2.010384,0.7803 -2.243343,0.5619 -2.335518,0.7433 -1.653201,3.2531 0.635626,2.3381 0.556057,3.7318 -0.331218,5.8017 -0.918307,2.1424 -4.140455,4.4144 -6.877634,4.8497 -0.672294,0.1069 -1.909925,0.3224 -2.750292,0.4789 -0.840367,0.1565 -4.622019,0.2897 -8.403671,0.296 -3.781651,0.01 -7.117725,0.016 -7.413501,0.022 -0.295772,0.01 -0.777073,0.3001 -1.069558,0.6536 -1.29044,1.5597 -4.198513,2.7692 -8.018694,3.335 -2.121309,0.3142 -14.919873,0.304 -16.960134,-0.014 v 0 z m 6.279729,-6.5696 c 0.757358,-0.3916 0.901589,-0.6512 0.901589,-1.6223 0,-0.6359 -0.201899,-1.423 -0.448664,-1.7493 -0.359274,-0.475 -0.450599,-1.8225 -0.458382,-6.7633 -0.0053,-3.3936 0.106897,-6.2422 0.249427,-6.3303 0.142529,-0.088 1.118424,-0.1859 2.16866,-0.2174 1.355546,-0.041 1.988241,0.067 2.180881,0.3713 0.149249,0.2357 0.272621,2.9726 0.274161,6.082 0.0021,4.4247 -0.09642,5.8436 -0.453703,6.5286 -0.73791,1.4149 -0.598067,3.1433 0.302031,3.7331 1.109752,0.7271 5.638077,0.5188 6.543715,-0.3011 1.042798,-0.944 0.817335,-2.0392 -0.764597,-3.7139 -1.588272,-1.6815 -1.52063,-0.8402 -0.61282,-7.6219 0.247484,-1.8488 0.595561,-4.5991 0.773498,-6.1117 0.177938,-1.5127 0.47886,-4.0567 0.668716,-5.6534 0.320045,-2.6916 0.248965,-6.05 -0.212439,-10.0377 -0.239263,-2.0678 0.23849,-2.7013 0.929785,-1.2329 0.554826,1.1785 1.692179,3.2921 3.168703,5.8884 0.977283,1.7185 1.007912,1.8716 0.805909,4.0273 -0.186549,1.9907 -0.134886,2.3623 0.462963,3.3296 1.604854,2.5968 5.414708,2.8634 7.350853,0.5145 1.812919,-2.1994 1.409906,-4.25 -1.277465,-6.5 -1.293826,-1.0832 -1.839261,-1.9433 -3.923659,-6.187 -2.973411,-6.0536 -3.305414,-6.639 -6.260215,-11.0387 l -2.36805,-3.526 2.138172,-2.25094 c 1.175991,-1.23801 2.63008,-3.13055 3.231303,-4.20564 1.159443,-2.07328 2.332853,-6.29112 2.336416,-8.39829 0.0038,-2.22643 -0.945496,-6.00623 -2.031329,-8.08841 -4.7526,-9.11352 -16.718073,-11.03227 -23.788717,-3.81469 -6.505727,6.64092 -6.266299,17.48542 0.535935,24.2742 2.550459,2.54542 2.638214,1.87049 -0.960091,7.38407 -1.370739,2.1003 -3.740553,6.3292 -5.266247,9.3975 -1.767215,3.554 -3.067975,5.7962 -3.583997,6.178 -1.912442,1.4149 -2.206849,1.7485 -2.506446,2.8397 -0.453377,1.6513 -0.08821,3.0599 1.089037,4.2009 3.376918,3.2731 8.931732,-0.045 7.473286,-4.4645 -0.351976,-1.0665 -0.288759,-1.269 1.542709,-4.9419 2.375101,-4.7632 3.272362,-6.146 3.538276,-5.453 0.104709,0.2728 0.108043,1.0111 0.0074,1.6406 -0.528334,3.3045 -0.764297,6.2143 -0.625621,7.7146 0.298257,3.2268 1.078588,9.9553 1.506225,12.9875 0.237035,1.6807 0.518445,3.8681 0.625358,4.8609 0.10691,0.9928 0.259597,1.975 0.339301,2.1827 0.0797,0.2077 -0.482943,1.0846 -1.250329,1.9486 -1.725961,1.9433 -1.919906,3.3855 -0.554875,4.1261 1.143923,0.6206 5.013542,0.6294 6.203333,0.014 h 9e-6 z m -28.408362,-4.3832 c 0.654326,-0.5298 0.678895,-0.6596 0.339442,-1.7926 -0.494086,-1.6491 -0.493483,-9.6099 7.65e-4,-10.1042 0.483221,-0.4832 2.836124,-0.472 3.223749,0.015 0.523015,0.6576 0.67777,8.2272 0.191826,9.3829 -0.590119,1.4035 -0.526278,2.0445 0.258359,2.5941 0.876893,0.6142 3.360081,0.615 4.54655,0 1.098838,-0.5682 0.999757,-1.3043 -0.370024,-2.7489 -1.00895,-1.0641 -1.059739,-1.6042 -0.448172,-4.7658 0.883488,-4.5674 0.925554,-4.1446 -0.545569,-5.4834 -2.125473,-1.9344 -2.979147,-3.8023 -2.979147,-6.5187 0,-1.6605 0.162635,-2.5934 0.602397,-3.4554 0.726428,-1.424 2.890686,-3.4765 4.567985,-4.3322 0.673497,-0.3435 1.28134,-0.7951 1.35076,-1.0033 0.06942,-0.2083 -0.605468,-1.574 -1.49975,-3.035 -0.894283,-1.4611 -1.625969,-2.8055 -1.625969,-2.9878 0,-0.1823 0.69222,-1.0958 1.538269,-2.0301 1.848364,-2.041 2.871913,-4.2396 3.489543,-7.49543 0.409488,-2.15865 0.409518,-2.69067 2.75e-4,-4.84803 -0.636479,-3.35525 -1.454275,-5.02425 -3.459101,-7.05951 -2.060747,-2.09203 -4.393061,-3.10178 -7.222365,-3.12684 -6.440716,-0.057 -11.13851,5.237 -11.150335,12.56553 -0.0066,4.10079 1.119974,7.16718 3.666264,9.97888 1.061531,1.1721 1.452271,1.8276 1.315856,2.2072 -0.106718,0.2969 -1.112063,2.1213 -2.234099,4.0542 -1.122037,1.9328 -2.706184,4.7519 -3.520326,6.2645 -0.940766,1.748 -2.0323066,3.2621 -2.9949608,4.1545 -1.3520537,1.2534 -1.5147002,1.5418 -1.5147002,2.6862 0,2.9188 3.5429697,4.2351 5.769377,2.1435 0.826075,-0.7761 1.001521,-1.5842 0.645177,-2.972 -0.216603,-0.8435 -0.09447,-1.3631 0.718335,-3.0558 1.082566,-2.2546 2.270131,-3.6952 2.510058,-3.0449 0.07998,0.2168 0.07642,1.288 -0.0079,2.3804 -0.188012,2.436 0.428152,10.9121 1.016955,13.9895 0.608392,3.1797 0.56487,3.5184 -0.637052,4.957 -0.588257,0.7041 -1.069558,1.4567 -1.069558,1.6724 0,1.3129 4.15479,1.9235 5.527083,0.8123 z m 57.758692,0 c 0.662622,-0.5365 0.682842,-0.649 0.315883,-1.7571 -0.215632,-0.6511 -0.469628,-2.8905 -0.564433,-4.9763 -0.197324,-4.3411 -0.06814,-4.6112 2.205817,-4.6112 2.243939,0 2.347151,0.2237 2.189764,4.7456 -0.07588,2.18 -0.239208,4.5026 -0.362956,5.1613 -0.289792,1.5424 0.291687,2.0111 2.495453,2.0111 3.15754,0 4.009315,-1.1766 2.247881,-3.1052 -1.065946,-1.167 -1.158744,-2.2035 -0.482649,-5.391 0.54626,-2.5753 1.205857,-8.2398 1.216876,-10.4503 0.0046,-0.9244 -0.09917,-2.7121 -0.230618,-3.9726 l -0.238997,-2.292 0.785065,0.9168 c 0.431786,0.5042 1.278684,1.8993 1.881994,3.1001 0.897558,1.7865 1.036304,2.2966 0.763365,2.8066 -0.607677,1.1354 -0.380821,2.1238 0.746176,3.2508 0.851426,0.8514 1.321686,1.0797 2.223916,1.0797 1.979398,0 3.39442,-1.3201 3.409559,-3.1809 0.0083,-1.0228 -0.182739,-1.3742 -1.329238,-2.4447 -0.970498,-0.9061 -1.934347,-2.4274 -3.502591,-5.5284 -1.190003,-2.353 -2.935115,-5.6237 -3.878029,-7.2681 -0.942913,-1.6445 -1.670114,-3.1073 -1.616004,-3.2507 0.05411,-0.1434 0.807309,-1.0261 1.673773,-1.9614 0.866464,-0.9354 2.021807,-2.6354 2.567428,-3.7778 0.92412,-1.93502 0.992037,-2.2969 0.992037,-5.2859 0,-2.97228 -0.07127,-3.35786 -0.967312,-5.23353 -1.167749,-2.44442 -3.319223,-4.56436 -5.781151,-5.69642 -1.488241,-0.68434 -2.179077,-0.80558 -4.650948,-0.81622 -2.699076,-0.0116 -3.048009,0.06 -4.965344,1.01915 -7.375104,3.68941 -8.771363,13.67231 -2.777768,19.86032 0.897243,0.9264 1.631351,1.8767 1.631351,2.112 0,0.2352 -0.75633,1.7127 -1.680734,3.2834 -0.924404,1.5707 -1.680734,2.9987 -1.680734,3.1733 0,0.1745 0.692511,0.6683 1.538911,1.0972 3.58738,1.8179 5.481295,4.5907 5.486628,8.0329 0.0038,2.4717 -0.709707,4.0359 -2.745384,6.0186 l -1.568788,1.5279 0.210424,2.1392 c 0.115736,1.1765 0.398035,2.7579 0.627333,3.5142 0.558184,1.8412 0.530846,2.3374 -0.167224,3.0355 -1.006653,1.0066 -1.623675,2.1337 -1.435952,2.6229 0.435943,1.136 4.199485,1.4774 5.41722,0.4913 z"
         id="path4175"
         inkscape:connector-curvature="0"
         sodipodi:nodetypes="ccscscscsscscsccscssssssssssscccccsscssccssssccsccscccsccccsccccccccccssssscscscsscsscssssscsccscsssscscccccsccccccscsccccscsssssccccssccccssssccccssscscsssccsccsccccsccssssscsssccccsccccc" />
      <path
         style="opacity:1;fill:#00c900;fill-opacity:1;stroke:#000000;stroke-width:0.184575;stroke-miterlimit:4;stroke-dasharray:none;stroke-opacity:0"
         d="m 44.530824,981.61626 c -2.092735,-0.91081 -2.605128,-3.23015 -1.055875,-4.7794 1.232839,-1.23284 2.786819,-1.23284 4.019658,0 1.514995,1.51499 1.078827,3.716 -0.943646,4.76186 -1.036888,0.5362 -0.832493,0.53443 -2.020137,0.0175 z"
         id="path4177"
         inkscape:connector-curvature="0" />
      <path
         style="opacity:1;fill:#00c900;fill-opacity:1;stroke:#000000;stroke-width:0.184575;stroke-miterlimit:4;stroke-dasharray:none;stroke-opacity:0"
         d="m 56.127407,980.97862 c -1.206578,-0.95109 -1.528361,-2.22198 -0.880031,-3.47572 0.592051,-1.1449 1.325634,-1.5593 2.760311,-1.5593 2.49723,0 3.562776,3.06058 1.71044,4.91292 -1.113295,1.11329 -2.282809,1.15306 -3.59072,0.1221 z"
         id="path4179"
         inkscape:connector-curvature="0" />
      <path
         style="opacity:1;fill:#00c900;fill-opacity:1;stroke:#000000;stroke-width:0.184575;stroke-miterlimit:4;stroke-dasharray:none;stroke-opacity:0"
         d="m 48.031953,992.28573 c -0.784009,-0.4083 -1.724956,-1.16294 -2.090995,-1.677 -0.624009,-0.87634 -0.634926,-0.98134 -0.175002,-1.68327 0.727954,-1.111 1.905321,-1.29098 3.277806,-0.50108 1.495601,0.86076 3.690126,0.8737 5.262351,0.031 1.47153,-0.7887 2.659375,-0.67798 3.140761,0.29274 0.658969,1.32882 -0.07822,2.46643 -2.400297,3.70408 -1.693864,0.90281 -5.117338,0.82154 -7.014624,-0.16652 z"
         id="path4181"
         inkscape:connector-curvature="0" />
    </g>
  </g>
</svg>
